<svg version="1.1" id="Layer_1" xmlns="http://www.w3.org/2000/svg" xmlns:xlink="http://www.w3.org/1999/xlink" x="0px" y="0px"
	 width="100%" viewBox="0 0 512 512" enable-background="new 0 0 512 512" xml:space="preserve">
<path fill="#7584F2" opacity="1.000000" stroke="none" 
	d="
M225.000000,1.000001 
	C246.020889,1.000000 267.041779,1.000000 288.193481,1.338911 
	C289.165588,2.115074 289.960999,2.763777 290.855103,2.957941 
	C304.773651,5.980488 318.838684,8.435134 332.600037,12.048551 
	C350.376892,16.716339 367.000488,24.373692 383.009430,33.442272 
	C399.376434,42.713669 414.919861,53.230309 428.424896,66.232170 
	C440.164032,77.533867 451.333130,89.593712 461.498138,102.321617 
	C473.754486,117.668114 484.171631,134.371780 490.819458,152.930634 
	C488.805817,151.588318 487.015900,150.382690 485.505219,148.893784 
	C470.723022,134.324692 455.987427,119.708336 440.896423,104.835869 
	C438.579865,104.394188 436.605438,104.072647 434.630920,104.071716 
	C377.539185,104.044815 320.447449,104.045486 263.355713,104.067451 
	C261.203613,104.068275 259.051636,104.325623 256.439941,104.414459 
	C238.354141,104.426254 220.727997,104.487015 202.678741,104.428780 
	C199.533203,104.435959 196.810776,104.562134 193.669800,104.686867 
	C185.751938,104.685532 178.252609,104.685638 170.376312,104.594177 
	C164.514954,104.428802 159.030609,104.296196 153.546158,104.291306 
	C128.429779,104.268898 103.313362,104.281189 78.196960,104.284294 
	C75.525887,104.284622 72.845444,103.843002 72.889526,108.110039 
	C73.057861,124.404060 72.997643,140.700455 72.966164,157.461914 
	C72.959770,163.694763 73.009995,169.461655 73.039726,175.590607 
	C64.445068,196.312424 60.673630,217.506134 64.221970,239.370819 
	C66.070053,250.758575 70.049255,261.800476 73.045624,273.467285 
	C72.981300,315.745941 72.927811,357.555878 72.939522,399.365814 
	C72.939865,400.587524 73.628448,401.809052 74.148849,403.325378 
	C75.671883,405.071777 77.007126,406.558472 78.417740,407.969849 
	C105.966995,435.533722 133.538589,463.075348 161.045792,490.681122 
	C162.619415,492.260345 163.681824,494.348969 164.598862,496.113159 
	C152.946777,490.712708 141.510834,485.723206 130.448761,480.009857 
	C114.311043,471.675049 99.797729,460.818451 86.392853,448.672516 
	C77.564606,440.673340 69.554062,431.736572 61.506290,422.919373 
	C49.043736,409.265472 38.885033,393.874725 30.347839,377.584442 
	C16.091885,350.381866 6.192594,321.657990 2.915858,290.899994 
	C2.841978,290.206482 1.663320,289.630707 1.000000,289.000000 
	C1.000000,267.645782 1.000000,246.291550 1.331884,224.808044 
	C2.773233,219.503906 4.029080,214.355453 4.967883,209.149811 
	C10.196181,180.159073 20.389822,152.938095 35.219009,127.600288 
	C49.903347,102.509964 68.604561,80.646057 90.725563,61.662712 
	C104.742508,49.633934 119.810608,39.161739 136.057770,30.562693 
	C163.348618,16.118610 192.235596,6.320192 223.103271,2.916252 
	C223.797516,2.839694 224.370468,1.663340 225.000000,1.000001 
z"/>
<path fill="#4253CE" opacity="1.000000" stroke="none" 
	d="
M164.982132,496.200531 
	C163.681824,494.348969 162.619415,492.260345 161.045792,490.681122 
	C133.538589,463.075348 105.966995,435.533722 78.417740,407.969849 
	C77.007126,406.558472 75.671883,405.071777 74.614120,403.256775 
	C133.443405,402.879944 191.960129,402.868591 250.476852,402.844788 
	C252.633652,402.843903 254.790375,402.721161 257.411377,402.746307 
	C275.828918,402.818512 293.782288,402.799652 312.022034,402.989075 
	C317.555237,408.983215 322.549896,415.024292 328.098145,420.504944 
	C342.394806,434.627563 365.697113,434.173828 379.297791,419.624634 
	C382.722748,413.930420 385.866058,408.387299 389.477234,402.857574 
	C406.864288,402.870941 423.783478,402.870941 441.123291,402.870941 
	C441.123291,400.041321 441.123291,397.901825 441.123291,395.762329 
	C441.123291,327.493103 441.129730,259.223846 441.117035,190.954605 
	C441.114929,179.634140 441.029388,168.313675 441.094666,156.535767 
	C441.217468,139.087372 441.227997,122.096413 441.238525,105.105438 
	C455.987427,119.708336 470.723022,134.324692 485.505219,148.893784 
	C487.015900,150.382690 488.805817,151.588318 490.774902,152.947968 
	C491.083649,152.970520 491.040558,152.885284 491.050903,153.189285 
	C491.405121,153.984192 491.748993,154.475082 492.421783,155.123688 
	C493.527496,157.236343 494.294220,159.195374 495.082672,161.145599 
	C503.083832,180.935867 508.624695,201.361618 511.108643,222.596863 
	C511.209564,223.459839 512.346008,224.201706 513.000000,225.000000 
	C513.000000,246.020889 513.000000,267.041779 512.588013,288.401367 
	C511.454956,292.178436 510.557159,295.590576 510.041412,299.059479 
	C506.469635,323.084106 499.044189,345.944122 488.626740,367.783356 
	C478.945068,388.080109 467.225494,407.246155 451.726868,423.641449 
	C439.828705,436.227905 427.631958,448.727173 414.275177,459.690155 
	C397.742279,473.259857 379.224274,484.045746 359.363983,492.393311 
	C337.497955,501.583893 315.068756,508.512756 291.405457,511.109283 
	C290.544830,511.203735 289.799225,512.346069 289.000000,513.000000 
	C267.979095,513.000000 246.958206,513.000000 225.586121,512.586792 
	C219.871811,511.129822 214.424576,510.398804 209.161728,508.982513 
	C194.750015,505.104095 180.415878,500.937317 165.908752,496.683777 
	C165.509644,496.274078 165.225845,496.112640 164.976852,496.034119 
	C165.038620,496.069672 164.982132,496.200531 164.982132,496.200531 
z"/>
<path fill="#000000" opacity="1.000000" stroke="none" 
	d="
M513.000000,224.531342 
	C512.346008,224.201706 511.209564,223.459839 511.108643,222.596863 
	C508.624695,201.361618 503.083832,180.935867 495.082672,161.145599 
	C494.294220,159.195374 493.527496,157.236343 492.366699,154.810349 
	C491.668671,153.854630 491.354614,153.369949 491.040558,152.885284 
	C491.040558,152.885284 491.083649,152.970520 491.128174,152.953186 
	C484.171631,134.371780 473.754486,117.668114 461.498138,102.321617 
	C451.333130,89.593712 440.164032,77.533867 428.424896,66.232170 
	C414.919861,53.230309 399.376434,42.713669 383.009430,33.442272 
	C367.000488,24.373692 350.376892,16.716339 332.600037,12.048551 
	C318.838684,8.435134 304.773651,5.980488 290.855103,2.957941 
	C289.960999,2.763777 289.165588,2.115074 288.662140,1.338911 
	C363.593719,1.000000 438.187408,1.000000 513.000000,1.000000 
	C513.000000,75.354088 513.000000,149.708389 513.000000,224.531342 
z"/>
<path fill="#000000" opacity="1.000000" stroke="none" 
	d="
M166.051010,496.884705 
	C180.415878,500.937317 194.750015,505.104095 209.161728,508.982513 
	C214.424576,510.398804 219.871811,511.129822 225.117462,512.586792 
	C150.406296,513.000000 75.812599,513.000000 1.000000,513.000000 
	C1.000000,438.645905 1.000000,364.291626 1.000000,289.468658 
	C1.663320,289.630707 2.841978,290.206482 2.915858,290.899994 
	C6.192594,321.657990 16.091885,350.381866 30.347839,377.584442 
	C38.885033,393.874725 49.043736,409.265472 61.506290,422.919373 
	C69.554062,431.736572 77.564606,440.673340 86.392853,448.672516 
	C99.797729,460.818451 114.311043,471.675049 130.448761,480.009857 
	C141.510834,485.723206 152.946777,490.712708 164.598862,496.113159 
	C164.982132,496.200531 165.038620,496.069672 165.056396,496.303040 
	C165.399796,496.652527 165.725403,496.768646 166.051010,496.884705 
z"/>
<path fill="#000000" opacity="1.000000" stroke="none" 
	d="
M289.468689,513.000000 
	C289.799225,512.346069 290.544830,511.203735 291.405457,511.109283 
	C315.068756,508.512756 337.497955,501.583893 359.363983,492.393311 
	C379.224274,484.045746 397.742279,473.259857 414.275177,459.690155 
	C427.631958,448.727173 439.828705,436.227905 451.726868,423.641449 
	C467.225494,407.246155 478.945068,388.080109 488.626740,367.783356 
	C499.044189,345.944122 506.469635,323.084106 510.041412,299.059479 
	C510.557159,295.590576 511.454956,292.178436 512.588013,288.870026 
	C513.000000,363.593719 513.000000,438.187408 513.000000,513.000000 
	C438.645905,513.000000 364.291626,513.000000 289.468689,513.000000 
z"/>
<path fill="#000000" opacity="1.000000" stroke="none" 
	d="
M224.531342,1.000001 
	C224.370468,1.663340 223.797516,2.839694 223.103271,2.916252 
	C192.235596,6.320192 163.348618,16.118610 136.057770,30.562693 
	C119.810608,39.161739 104.742508,49.633934 90.725563,61.662712 
	C68.604561,80.646057 49.903347,102.509964 35.219009,127.600288 
	C20.389822,152.938095 10.196181,180.159073 4.967883,209.149811 
	C4.029080,214.355453 2.773233,219.503906 1.331884,224.339386 
	C1.000000,149.739456 1.000000,75.478920 1.000000,1.000000 
	C75.354088,1.000000 149.708389,1.000000 224.531342,1.000001 
z"/>
<path fill="#FFFFFF" opacity="1.000000" stroke="none" 
	d="
M256.947144,402.655243 
	C254.790375,402.721161 252.633652,402.843903 250.476852,402.844788 
	C191.960129,402.868591 133.443405,402.879944 74.461395,402.962036 
	C73.628448,401.809052 72.939865,400.587524 72.939522,399.365814 
	C72.927811,357.555878 72.981300,315.745941 73.310532,273.680695 
	C74.395622,275.067505 75.178085,276.718414 75.998108,278.350464 
	C98.384377,322.904663 146.829819,348.892609 196.444946,343.248993 
	C213.753494,341.280121 229.688156,335.549561 245.024750,327.579376 
	C249.192383,332.522217 253.171677,337.132172 257.118652,342.225983 
	C257.039917,362.691650 256.993530,382.673431 256.947144,402.655243 
z"/>
<path fill="#565B67" opacity="1.000000" stroke="none" 
	d="
M244.836426,327.246490 
	C229.688156,335.549561 213.753494,341.280121 196.444946,343.248993 
	C146.829819,348.892609 98.384377,322.904663 75.998108,278.350464 
	C75.178085,276.718414 74.395622,275.067505 73.330750,273.211975 
	C70.049255,261.800476 66.070053,250.758575 64.221970,239.370819 
	C60.673630,217.506134 64.445068,196.312424 73.311874,175.364273 
	C76.794182,168.864822 79.983856,162.953781 83.451706,156.865295 
	C88.432320,151.099258 93.134766,145.510651 98.182465,140.002075 
	C103.462982,144.661804 108.340927,149.305618 113.360237,153.791275 
	C115.523872,155.724884 117.980141,157.331039 120.148987,159.375824 
	C119.791382,160.050446 119.588249,160.435181 119.109344,160.967346 
	C98.886353,182.026382 90.526672,206.836288 93.863022,235.548004 
	C99.752090,286.227722 149.184708,322.295227 199.269241,312.631012 
	C217.623917,309.089325 233.244461,300.518921 247.131836,288.102417 
	C254.342056,294.883820 261.257416,301.489288 268.007599,308.386841 
	C260.173767,314.868073 252.505096,321.057281 244.836426,327.246490 
z"/>
<path fill="#646A79" opacity="1.000000" stroke="none" 
	d="
M120.303467,159.085953 
	C117.980141,157.331039 115.523872,155.724884 113.360237,153.791275 
	C108.340927,149.305618 103.462982,144.661804 98.328270,139.697021 
	C118.310829,119.325516 142.627228,108.010468 170.753296,104.685753 
	C178.252609,104.685638 185.751938,104.685532 194.085327,104.744919 
	C197.631378,105.142296 200.343353,105.480179 203.452515,105.897247 
	C206.434326,106.527611 209.026276,107.046654 211.602356,107.635193 
	C228.319305,111.454468 243.095703,119.365372 257.131775,129.466125 
	C265.822571,138.838058 274.345734,147.928391 282.954834,157.359558 
	C290.790924,169.219940 295.671722,182.025635 299.830841,195.569183 
	C300.919800,205.675949 302.007355,215.368988 303.033264,225.509216 
	C302.283417,233.306366 301.595215,240.656311 300.700165,248.316376 
	C297.240295,258.325592 293.987274,268.024719 290.476654,277.942688 
	C288.863678,280.734558 287.508240,283.307587 285.903259,286.126404 
	C280.090576,293.603607 274.527466,300.835052 268.766571,308.076843 
	C268.568787,308.087158 268.172760,308.094788 268.172760,308.094788 
	C261.257416,301.489288 254.342056,294.883820 247.192047,287.878540 
	C246.957367,287.478790 247.040588,287.022705 247.336792,286.868744 
	C275.935150,256.622681 281.073578,213.052277 260.427429,178.226257 
	C239.921997,143.637573 199.293732,126.988190 160.086563,137.067184 
	C144.910431,140.968521 132.009827,148.937653 120.303467,159.085953 
z"/>
<path fill="#BEC3D2" opacity="1.000000" stroke="none" 
	d="
M282.868896,157.018723 
	C274.345734,147.928391 265.822571,138.838058 257.138245,128.984695 
	C256.951263,120.302254 256.925415,112.382843 256.899597,104.463432 
	C259.051636,104.325623 261.203613,104.068275 263.355713,104.067451 
	C320.447449,104.045486 377.539185,104.044815 434.630920,104.071716 
	C436.605438,104.072647 438.579865,104.394188 440.896423,104.835876 
	C441.227997,122.096413 441.217468,139.087372 440.627258,156.532776 
	C387.654694,156.997711 335.261810,157.008209 282.868896,157.018723 
M402.208496,135.026138 
	C406.198273,141.702301 411.964386,143.904861 418.005035,141.060181 
	C423.501587,138.471725 426.077759,132.094147 423.920898,126.414520 
	C421.761047,120.726852 415.598175,117.642365 409.757935,119.326012 
	C403.423370,121.152153 400.349731,127.063316 402.208496,135.026138 
M366.469513,128.975571 
	C366.490356,138.680206 374.162231,144.637329 382.413269,141.355743 
	C387.345642,139.394058 390.481567,134.098145 389.701691,129.047318 
	C388.871338,123.669960 384.709595,119.575058 379.497345,119.007019 
	C373.363892,118.338593 368.985413,121.479515 366.469513,128.975571 
z"/>
<path fill="#D9DEEA" opacity="1.000000" stroke="none" 
	d="
M170.376312,104.594177 
	C142.627228,108.010468 118.310829,119.325516 97.983002,139.617004 
	C93.134766,145.510651 88.432320,151.099258 82.987122,156.845856 
	C79.170502,157.001221 76.096642,156.998596 73.022774,156.995956 
	C72.997643,140.700455 73.057861,124.404060 72.889526,108.110039 
	C72.845444,103.843002 75.525887,104.284622 78.196960,104.284294 
	C103.313362,104.281189 128.429779,104.268898 153.546158,104.291306 
	C159.030609,104.296196 164.514954,104.428802 170.376312,104.594177 
z"/>
<path fill="#DADFE9" opacity="1.000000" stroke="none" 
	d="
M256.439941,104.414459 
	C256.925415,112.382843 256.951263,120.302254 256.970612,128.703094 
	C243.095703,119.365372 228.319305,111.454468 211.602356,107.635193 
	C209.026276,107.046654 206.434326,106.527611 203.463425,105.684540 
	C203.102982,105.111549 203.111237,104.829918 203.101868,104.547775 
	C220.727997,104.487015 238.354141,104.426254 256.439941,104.414459 
z"/>
<path fill="#FAFAFA" opacity="1.000000" stroke="none" 
	d="
M72.966164,157.461914 
	C76.096642,156.998596 79.170502,157.001221 82.708954,157.023285 
	C79.983856,162.953781 76.794182,168.864822 73.332367,175.002213 
	C73.009995,169.461655 72.959770,163.694763 72.966164,157.461914 
z"/>
<path fill="#BEC3D2" opacity="1.000000" stroke="none" 
	d="
M202.678741,104.428780 
	C203.111237,104.829918 203.102982,105.111549 203.066223,105.605362 
	C200.343353,105.480179 197.631378,105.142296 194.503891,104.746361 
	C196.810776,104.562134 199.533203,104.435959 202.678741,104.428780 
z"/>
<path fill="#E9EDF5" opacity="1.000000" stroke="none" 
	d="
M282.954834,157.359558 
	C335.261810,157.008209 387.654694,156.997711 440.515015,156.990204 
	C441.029388,168.313675 441.114929,179.634140 441.117035,190.954605 
	C441.129730,259.223846 441.123291,327.493103 441.123291,395.762329 
	C441.123291,397.901825 441.123291,400.041321 441.123291,402.870941 
	C423.783478,402.870941 406.864288,402.870941 389.468567,402.442383 
	C391.666351,386.428833 386.046600,374.266327 374.240479,364.134277 
	C361.774261,353.435669 349.792877,342.172180 338.095886,331.122375 
	C357.721771,331.071198 376.852112,330.964020 395.980560,331.108307 
	C399.931396,331.138123 401.260895,329.812683 401.125549,325.919556 
	C400.888611,319.107544 400.961365,312.279541 401.097534,305.462097 
	C401.160492,302.309387 400.076752,300.991577 396.787537,301.004120 
	C365.848969,301.122131 334.910004,301.138336 303.669189,301.026123 
	C297.629089,295.872406 291.890961,290.876495 286.152832,285.880615 
	C287.508240,283.307587 288.863678,280.734558 290.958374,278.019470 
	C295.523804,277.917572 299.350006,277.991486 303.176178,277.992645 
	C333.794525,278.002014 364.413574,277.895966 395.030548,278.101166 
	C399.922638,278.133911 401.441925,276.594482 401.146301,271.844330 
	C400.785248,266.042633 400.752350,260.180054 401.153839,254.383713 
	C401.501526,249.363647 399.878296,247.849854 394.758087,247.887650 
	C363.475830,248.118546 332.190979,248.005005 300.907013,248.006271 
	C301.595215,240.656311 302.283417,233.306366 303.494812,225.479782 
	C305.683502,224.989227 307.348999,224.963303 309.014465,224.963135 
	C337.829620,224.960297 366.645294,224.878128 395.459442,225.047897 
	C399.852539,225.073776 401.353485,223.753113 401.143402,219.354095 
	C400.825928,212.706680 400.959564,206.031113 401.096436,199.371521 
	C401.161652,196.199677 400.035004,194.915543 396.760376,194.928909 
	C364.450317,195.060806 332.139801,195.094162 299.829437,195.155441 
	C295.671722,182.025635 290.790924,169.219940 282.954834,157.359558 
z"/>
<path fill="#FE432F" opacity="1.000000" stroke="none" 
	d="
M379.016174,419.775757 
	C365.697113,434.173828 342.394806,434.627563 328.098145,420.504944 
	C322.549896,415.024292 317.555237,408.983215 311.878357,402.713989 
	C308.021057,398.368652 304.585327,394.514221 301.168091,390.643463 
	C288.384064,376.162933 275.606110,361.677094 263.104980,346.982483 
	C270.381989,339.813049 277.379852,332.854340 284.684875,326.003296 
	C286.501068,327.396362 288.104828,328.586670 289.504547,329.981781 
	C304.000793,344.430359 318.484497,358.891693 332.931183,373.389862 
	C348.315643,388.829102 363.656372,404.311951 379.016174,419.775757 
z"/>
<path fill="#FF6C53" opacity="1.000000" stroke="none" 
	d="
M379.297791,419.624634 
	C363.656372,404.311951 348.315643,388.829102 332.931183,373.389862 
	C318.484497,358.891693 304.000793,344.430359 289.504547,329.981781 
	C288.104828,328.586670 286.501068,327.396362 284.674438,325.830811 
	C284.356842,325.550690 284.327484,325.203552 284.617615,325.069214 
	C291.951385,317.942200 298.995056,310.949585 306.355103,304.068787 
	C308.067627,305.338928 309.491852,306.465210 310.855316,307.660767 
	C319.777435,315.483978 328.686432,323.322144 337.599701,331.155457 
	C349.792877,342.172180 361.774261,353.435669 374.240479,364.134277 
	C386.046600,374.266327 391.666351,386.428833 389.000732,402.429016 
	C385.866058,408.387299 382.722748,413.930420 379.297791,419.624634 
z"/>
<path fill="#E6E9F4" opacity="1.000000" stroke="none" 
	d="
M262.825867,347.193237 
	C275.606110,361.677094 288.384064,376.162933 301.168091,390.643463 
	C304.585327,394.514221 308.021057,398.368652 311.591949,402.505676 
	C293.782288,402.799652 275.828918,402.818512 257.411377,402.746307 
	C256.993530,382.673431 257.039917,362.691650 257.403442,342.394531 
	C259.422363,343.783905 261.124115,345.488586 262.825867,347.193237 
z"/>
<path fill="#7584F2" opacity="1.000000" stroke="none" 
	d="
M491.050903,153.189285 
	C491.354614,153.369949 491.668671,153.854630 492.037781,154.652634 
	C491.748993,154.475082 491.405121,153.984192 491.050903,153.189285 
z"/>
<path fill="#7584F2" opacity="1.000000" stroke="none" 
	d="
M165.908752,496.683807 
	C165.725403,496.768646 165.399796,496.652527 164.994629,496.267517 
	C165.225845,496.112640 165.509644,496.274078 165.908752,496.683807 
z"/>
<path fill="#636AE7" opacity="1.000000" stroke="none" 
	d="
M263.104980,346.982483 
	C261.124115,345.488586 259.422363,343.783905 257.435791,341.910706 
	C253.171677,337.132172 249.192383,332.522217 245.024750,327.579376 
	C252.505096,321.057281 260.173767,314.868073 268.007599,308.386841 
	C268.172760,308.094788 268.568787,308.087158 268.853271,308.402771 
	C274.200989,314.213409 279.264252,319.708496 284.327484,325.203552 
	C284.327484,325.203552 284.356842,325.550690 284.367279,325.723145 
	C277.379852,332.854340 270.381989,339.813049 263.104980,346.982483 
z"/>
<path fill="#E8ECF4" opacity="1.000000" stroke="none" 
	d="
M247.040588,287.022705 
	C247.040588,287.022705 246.957367,287.478790 246.897156,287.702637 
	C233.244461,300.518921 217.623917,309.089325 199.269241,312.631012 
	C149.184708,322.295227 99.752090,286.227722 93.863022,235.548004 
	C90.526672,206.836288 98.886353,182.026382 119.450935,161.118500 
	C131.575394,172.445175 143.053955,183.797409 154.622192,195.057541 
	C156.243469,196.635651 158.304413,197.762054 160.106628,199.299194 
	C160.051407,199.500809 159.961731,199.909363 159.633118,200.002991 
	C149.228836,207.171188 145.756805,217.014191 147.778946,228.824860 
	C149.815353,240.718872 157.165344,248.187164 168.726059,250.908371 
	C180.891312,253.771866 191.828659,251.410385 200.289093,241.042938 
	C200.496201,240.971710 200.909897,240.827759 201.087219,241.123032 
	C206.830215,247.099930 212.332031,252.845886 217.975754,258.448883 
	C227.617172,268.020691 237.347565,277.502869 247.040588,287.022705 
M125.789673,232.760742 
	C124.589775,234.650757 123.664482,237.851456 122.135712,238.171753 
	C118.363861,238.961990 114.315147,238.430771 109.292244,238.430771 
	C108.259903,240.361084 106.498703,243.654236 104.789917,246.849380 
	C117.852615,257.367218 137.944366,251.635162 139.444199,236.694122 
	C140.777359,223.413391 139.723999,209.893097 139.723999,196.204376 
	C135.109680,196.204376 130.753113,196.204376 125.860664,196.204376 
	C125.860664,208.345428 125.860664,220.113678 125.789673,232.760742 
z"/>
<path fill="#FEFEFE" opacity="1.000000" stroke="none" 
	d="
M247.336792,286.868744 
	C237.347565,277.502869 227.617172,268.020691 217.975754,258.448883 
	C212.332031,252.845886 206.830215,247.099930 201.208801,240.799408 
	C212.542557,221.016342 203.685593,199.320831 182.772705,195.388809 
	C174.849625,193.899109 167.296555,195.406616 160.161835,199.097565 
	C158.304413,197.762054 156.243469,196.635651 154.622192,195.057541 
	C143.053955,183.797409 131.575394,172.445175 119.726715,160.971069 
	C119.588249,160.435181 119.791382,160.050446 120.148987,159.375824 
	C132.009827,148.937653 144.910431,140.968521 160.086563,137.067184 
	C199.293732,126.988190 239.921997,143.637573 260.427429,178.226257 
	C281.073578,213.052277 275.935150,256.622681 247.336792,286.868744 
M217.736588,195.821396 
	C215.130463,195.626175 213.265335,195.982254 213.292221,199.418823 
	C213.421143,215.894836 213.374451,232.372192 213.426575,248.848969 
	C213.428497,249.460693 213.808380,250.071198 214.088776,250.912140 
	C225.459595,250.912140 236.769669,251.177338 248.059586,250.814606 
	C255.047256,250.590103 259.799164,246.368256 261.368408,239.976044 
	C263.332855,231.973770 260.044800,226.264404 253.658142,222.855591 
	C255.798431,220.195450 258.487244,217.958527 259.739014,215.093704 
	C263.733246,205.952408 257.216217,196.424561 246.646896,195.994431 
	C237.340912,195.615723 228.009796,195.853973 217.736588,195.821396 
z"/>
<path fill="#AFB4C8" opacity="1.000000" stroke="none" 
	d="
M300.700165,248.316376 
	C332.190979,248.005005 363.475830,248.118546 394.758087,247.887650 
	C399.878296,247.849854 401.501526,249.363647 401.153839,254.383713 
	C400.752350,260.180054 400.785248,266.042633 401.146301,271.844330 
	C401.441925,276.594482 399.922638,278.133911 395.030548,278.101166 
	C364.413574,277.895966 333.794525,278.002014 303.176178,277.992645 
	C299.350006,277.991486 295.523804,277.917572 291.215942,277.800598 
	C293.987274,268.024719 297.240295,258.325592 300.700165,248.316376 
z"/>
<path fill="#AFB4C8" opacity="1.000000" stroke="none" 
	d="
M299.830841,195.569183 
	C332.139801,195.094162 364.450317,195.060806 396.760376,194.928909 
	C400.035004,194.915543 401.161652,196.199677 401.096436,199.371521 
	C400.959564,206.031113 400.825928,212.706680 401.143402,219.354095 
	C401.353485,223.753113 399.852539,225.073776 395.459442,225.047897 
	C366.645294,224.878128 337.829620,224.960297 309.014465,224.963135 
	C307.348999,224.963303 305.683502,224.989227 303.556458,225.032593 
	C302.007355,215.368988 300.919800,205.675949 299.830841,195.569183 
z"/>
<path fill="#7784EF" opacity="1.000000" stroke="none" 
	d="
M284.617615,325.069214 
	C279.264252,319.708496 274.200989,314.213409 269.051056,308.392426 
	C274.527466,300.835052 280.090576,293.603607 285.903259,286.126404 
	C291.890961,290.876495 297.629089,295.872406 303.824951,301.267578 
	C304.868042,302.430206 305.453400,303.193573 306.038727,303.956940 
	C298.995056,310.949585 291.951385,317.942200 284.617615,325.069214 
z"/>
<path fill="#FE6E55" opacity="1.000000" stroke="none" 
	d="
M402.090881,134.661728 
	C400.349731,127.063316 403.423370,121.152153 409.757935,119.326012 
	C415.598175,117.642365 421.761047,120.726852 423.920898,126.414520 
	C426.077759,132.094147 423.501587,138.471725 418.005035,141.060181 
	C411.964386,143.904861 406.198273,141.702301 402.090881,134.661728 
z"/>
<path fill="#FE6E55" opacity="1.000000" stroke="none" 
	d="
M366.557251,128.601135 
	C368.985413,121.479515 373.363892,118.338593 379.497345,119.007019 
	C384.709595,119.575058 388.871338,123.669960 389.701691,129.047318 
	C390.481567,134.098145 387.345642,139.394058 382.413269,141.355743 
	C374.162231,144.637329 366.490356,138.680206 366.557251,128.601135 
z"/>
<path fill="#AFB4C8" opacity="1.000000" stroke="none" 
	d="
M306.355103,304.068787 
	C305.453400,303.193573 304.868042,302.430206 304.126953,301.425385 
	C334.910004,301.138336 365.848969,301.122131 396.787537,301.004120 
	C400.076752,300.991577 401.160492,302.309387 401.097534,305.462097 
	C400.961365,312.279541 400.888611,319.107544 401.125549,325.919556 
	C401.260895,329.812683 399.931396,331.138123 395.980560,331.108307 
	C376.852112,330.964020 357.721771,331.071198 338.095886,331.122375 
	C328.686432,323.322144 319.777435,315.483978 310.855316,307.660767 
	C309.491852,306.465210 308.067627,305.338928 306.355103,304.068787 
z"/>
<path fill="#636CEA" opacity="1.000000" stroke="none" 
	d="
M200.082001,241.114166 
	C191.828659,251.410385 180.891312,253.771866 168.726059,250.908371 
	C157.165344,248.187164 149.815353,240.718872 147.778946,228.824860 
	C145.756805,217.014191 149.228836,207.171188 159.807861,200.292908 
	C162.870865,203.641464 165.430511,206.793777 167.747803,210.185547 
	C161.706543,215.553955 160.631744,222.028381 162.695343,229.064331 
	C164.313110,234.580231 168.105164,238.176941 173.976532,239.052094 
	C181.195374,240.128082 186.641510,237.422562 190.496979,231.230713 
	C193.865860,234.647797 196.973938,237.880981 200.082001,241.114166 
z"/>
<path fill="#626BEA" opacity="1.000000" stroke="none" 
	d="
M125.825165,232.321350 
	C125.860664,220.113678 125.860664,208.345428 125.860664,196.204376 
	C130.753113,196.204376 135.109680,196.204376 139.723999,196.204376 
	C139.723999,209.893097 140.777359,223.413391 139.444199,236.694122 
	C137.944366,251.635162 117.852615,257.367218 104.789917,246.849380 
	C106.498703,243.654236 108.259903,240.361084 109.292244,238.430771 
	C114.315147,238.430771 118.363861,238.961990 122.135712,238.171753 
	C123.664482,237.851456 124.589775,234.650757 125.825165,232.321350 
z"/>
<path fill="#7786F2" opacity="1.000000" stroke="none" 
	d="
M167.990173,209.946091 
	C165.430511,206.793777 162.870865,203.641464 160.136475,200.199265 
	C159.961731,199.909363 160.051407,199.500809 160.106628,199.299194 
	C167.296555,195.406616 174.849625,193.899109 182.772705,195.388809 
	C203.685593,199.320831 212.542557,221.016342 201.031464,240.504135 
	C200.909897,240.827759 200.496201,240.971710 200.289093,241.042938 
	C196.973938,237.880981 193.865860,234.647797 190.482208,230.994385 
	C190.206619,230.574158 190.162842,230.102600 190.396439,229.802917 
	C192.906967,222.418823 191.938568,215.891510 186.254578,210.894485 
	C181.479462,206.696487 175.797455,206.393829 169.748077,209.174805 
	C168.979874,209.467010 168.485016,209.706543 167.990173,209.946091 
z"/>
<path fill="#7887F2" opacity="1.000000" stroke="none" 
	d="
M218.213196,195.820587 
	C228.009796,195.853973 237.340912,195.615723 246.646896,195.994431 
	C257.216217,196.424561 263.733246,205.952408 259.739014,215.093704 
	C258.487244,217.958527 255.798431,220.195450 253.658142,222.855591 
	C260.044800,226.264404 263.332855,231.973770 261.368408,239.976044 
	C259.799164,246.368256 255.047256,250.590103 248.059586,250.814606 
	C236.769669,251.177338 225.459595,250.912140 214.088776,250.912140 
	C213.808380,250.071198 213.428497,249.460693 213.426575,248.848969 
	C213.374451,232.372192 213.421143,215.894836 213.292221,199.418823 
	C213.265335,195.982254 215.130463,195.626175 218.213196,195.820587 
M229.797150,238.940903 
	C234.110748,238.932129 238.504166,239.395828 242.699493,238.686966 
	C244.428970,238.394730 246.703766,235.696167 246.916107,233.879959 
	C247.079529,232.482162 244.550217,229.584808 242.966232,229.388535 
	C238.124237,228.788559 233.160553,229.170593 227.319244,229.170593 
	C227.915192,232.857697 228.393387,235.816162 229.797150,238.940903 
M228.859558,208.153717 
	C228.440552,210.897202 228.021545,213.640701 227.519669,216.926758 
	C232.866714,216.926758 237.216019,217.376541 241.389221,216.715164 
	C243.168365,216.433197 244.579559,213.829590 246.157974,212.280991 
	C244.510574,210.823334 243.027451,208.429398 241.181152,208.105484 
	C237.486740,207.457321 233.593506,207.942459 228.859558,208.153717 
z"/>
<path fill="#E7EBF5" opacity="1.000000" stroke="none" 
	d="
M190.162842,230.102600 
	C190.162842,230.102600 190.206619,230.574158 190.221405,230.810486 
	C186.641510,237.422562 181.195374,240.128082 173.976532,239.052094 
	C168.105164,238.176941 164.313110,234.580231 162.695343,229.064331 
	C160.631744,222.028381 161.706543,215.553955 167.747787,210.185547 
	C168.485016,209.706543 168.979874,209.467010 169.821899,209.501022 
	C176.833649,216.550568 183.498245,223.326584 190.162842,230.102600 
z"/>
<path fill="#FCFCFF" opacity="1.000000" stroke="none" 
	d="
M190.396439,229.802917 
	C183.498245,223.326584 176.833649,216.550568 170.095230,209.448334 
	C175.797455,206.393829 181.479462,206.696487 186.254578,210.894485 
	C191.938568,215.891510 192.906967,222.418823 190.396439,229.802917 
z"/>
<path fill="#FDFDFF" opacity="1.000000" stroke="none" 
	d="
M229.334351,238.857773 
	C228.393387,235.816162 227.915192,232.857697 227.319244,229.170593 
	C233.160553,229.170593 238.124237,228.788559 242.966232,229.388535 
	C244.550217,229.584808 247.079529,232.482162 246.916107,233.879959 
	C246.703766,235.696167 244.428970,238.394730 242.699493,238.686966 
	C238.504166,239.395828 234.110748,238.932129 229.334351,238.857773 
z"/>
<path fill="#FDFEFF" opacity="1.000000" stroke="none" 
	d="
M229.320953,208.056702 
	C233.593506,207.942459 237.486740,207.457321 241.181152,208.105484 
	C243.027451,208.429398 244.510574,210.823334 246.157959,212.281006 
	C244.579559,213.829590 243.168365,216.433197 241.389221,216.715164 
	C237.216019,217.376541 232.866714,216.926758 227.519669,216.926758 
	C228.021545,213.640701 228.440552,210.897202 229.320953,208.056702 
z"/>
</svg>